<svg width="128" height="128" viewBox="0 0 128 128" fill="none" xmlns="http://www.w3.org/2000/svg">
<g clip-path="url(#clip0_22_2)">
<ellipse cx="64" cy="63.5" rx="61" ry="60.5" fill="white"/>
<path d="M79.6629 104.957C80.8283 106.122 80.5094 108.086 78.9868 108.717C73.3942 111.033 67.3999 112.226 61.3464 112.226C55.293 112.226 49.2987 111.033 43.706 108.717C38.1136 106.4 33.0322 103.005 28.7518 98.7247C24.4714 94.4443 21.0757 89.3624 18.7591 83.7698C16.4426 78.1772 15.2499 72.1829 15.2498 66.1294C15.2498 60.076 16.4426 54.0817 18.7591 48.4891C19.3898 46.9665 21.3536 46.6476 22.519 47.8129L26.059 51.3529C27.7246 53.0186 28.2221 55.4914 27.6546 57.7776C26.9779 60.5037 26.6326 63.3078 26.6326 66.1294C26.6326 70.6879 27.5309 75.2017 29.2753 79.4132C31.0198 83.6249 33.5772 87.4524 36.8007 90.6759C40.0241 93.8992 43.8511 96.4561 48.0626 98.2006C52.2741 99.945 56.7879 100.843 61.3464 100.843C64.168 100.843 66.9722 100.498 69.6983 99.8213C71.9845 99.2538 74.4573 99.7513 76.123 101.417L79.6629 104.957Z" fill="url(#paint0_linear_22_2)"/>
<path d="M98.8121 27.7374C103.299 32.2248 106.86 37.5528 109.288 43.4159C111.717 49.2789 112.967 55.5631 112.967 61.9091C112.967 68.2552 111.717 74.5393 109.288 80.4023C108.568 82.1421 106.322 82.4983 104.991 81.1667L101.547 77.7226C99.7893 75.9651 99.2754 73.3508 99.8928 70.9433C100.648 67.9978 101.034 64.9627 101.034 61.9084C101.033 57.1295 100.092 52.3969 98.2631 47.9817C96.4342 43.5666 93.7537 39.5542 90.3744 36.175C86.9953 32.7959 82.9834 30.1158 78.5684 28.287C74.1532 26.4582 69.4206 25.5166 64.6417 25.5166C61.5874 25.5166 58.5523 25.9019 55.6068 26.6573C53.1993 27.2747 50.585 26.7608 48.8275 25.0033L45.3834 21.5592C44.0518 20.2276 44.408 17.9826 46.1478 17.262C52.0108 14.8334 58.2949 13.5835 64.641 13.5835C70.987 13.5835 77.2712 14.8335 83.1342 17.262C88.9971 19.6905 94.3247 23.2501 98.8121 27.7374Z" fill="url(#paint1_linear_22_2)"/>
<path d="M76.2105 47.8904C78.9982 45.7191 82.592 49.3129 80.4207 52.1006L80.1198 52.4869C78.5068 54.5579 80.1436 57.5553 82.7578 57.3181L83.2454 57.2738C86.7645 56.9544 87.8448 61.9206 84.5111 63.0919L84.0492 63.2542C81.5726 64.1243 81.3289 67.5309 83.6565 68.7446L84.0906 68.971C87.2237 70.6048 85.4476 75.3667 82.0098 74.5498L81.5335 74.4366C78.9796 73.8296 76.9329 76.5636 78.2348 78.8431L78.4776 79.2682C80.23 82.3366 76.1614 85.3823 73.7111 82.8364L73.3715 82.4837C71.5512 80.5924 68.3513 81.7859 68.2141 84.4073L68.1886 84.8962C68.0039 88.4249 62.9345 88.7875 62.2496 85.321L62.1547 84.8407C61.6458 82.2654 58.3086 81.5395 56.776 83.6706L56.4901 84.0681C54.427 86.9368 49.9664 84.5011 51.2643 81.2146L51.4441 80.7592C52.4083 78.3177 49.9934 75.9028 47.5519 76.867L47.0965 77.0468C43.81 78.3447 41.3743 73.884 44.243 71.821L44.6405 71.5351C46.7716 70.0024 46.0456 66.6653 43.4704 66.1564L42.9901 66.0615C39.5236 65.3766 39.8862 60.3072 43.4149 60.1225L43.9038 60.097C46.5252 59.9598 47.7187 56.7599 45.8274 54.9396L45.4747 54.6C42.9288 52.1497 45.9745 48.0811 49.0429 49.8335L49.468 50.0763C51.7475 51.3782 54.4815 49.3315 53.8745 46.7776L53.7613 46.3013C52.9444 42.8635 57.7063 41.0874 59.3401 44.2205L59.5665 44.6546C60.7802 46.9822 64.1868 46.7385 65.0569 44.2619L65.2192 43.8C66.3905 40.4663 71.3567 41.5466 71.0373 45.0657L70.993 45.5533C70.7557 48.1675 73.7532 49.8043 75.8242 48.1913L76.2105 47.8904Z" fill="#FEA013"/>
<rect x="33.4263" y="18.3891" width="107" height="23" rx="11.5" transform="rotate(45 33.4263 18.3891)" fill="#EDEDED" stroke="#FEA013" stroke-width="4"/>
<path d="M44.7401 46.6732L36.3749 44.4318L42.4987 38.3081L44.7401 46.6732Z" fill="#FF5557"/>
<path d="M49.6897 51.6233L86.3318 88.144" stroke="#FF5557" stroke-width="2" stroke-linecap="round"/>
<circle cx="86.6958" cy="88.508" r="4.5" transform="rotate(45 86.6958 88.508)" fill="#FF5557"/>
</g>
<defs>
<linearGradient id="paint0_linear_22_2" x1="51.0908" y1="76.3848" x2="28.7513" y2="98.7242" gradientUnits="userSpaceOnUse">
<stop offset="0.124991" stop-color="#FFDD6C"/>
<stop offset="1" stop-color="#0022FF"/>
</linearGradient>
<linearGradient id="paint1_linear_22_2" x1="98.8123" y1="27.7376" x2="75.187" y2="51.3628" gradientUnits="userSpaceOnUse">
<stop stop-color="#D13535"/>
<stop offset="1" stop-color="#A0D899"/>
</linearGradient>
<clipPath id="clip0_22_2">
<rect width="128" height="128" fill="white"/>
</clipPath>
</defs>
</svg>
